<mxfile>
  <diagram id="cbtELeMb5u2cjlSm2niA" name="Page-1">
    <mxGraphModel dx="1068" dy="2098" grid="1" gridSize="20" guides="1" tooltips="1" connect="1" arrows="1" fold="1" page="1" pageScale="1" pageWidth="850" pageHeight="1100" background="#ffffff" math="0" shadow="0">
      <root>
        <mxCell id="0" />
        <mxCell id="1" parent="0" />
        <mxCell id="2" value="" style="rounded=0;whiteSpace=wrap;html=1;sketch=1;hachureGap=4;jiggle=2;curveFitting=1;fontFamily=Architects Daughter;fontSource=https%3A%2F%2Ffonts.googleapis.com%2Fcss%3Ffamily%3DArchitects%2BDaughter;fontSize=20;fillColor=#d5e8d4;strokeColor=#82b366;" parent="1" vertex="1">
          <mxGeometry x="350" y="50" width="410" height="110" as="geometry" />
        </mxCell>
        <mxCell id="3" value="" style="rounded=0;whiteSpace=wrap;html=1;sketch=1;hachureGap=4;jiggle=2;curveFitting=1;fontFamily=Architects Daughter;fontSource=https%3A%2F%2Ffonts.googleapis.com%2Fcss%3Ffamily%3DArchitects%2BDaughter;fontSize=20;fillColor=#60a917;fontColor=#ffffff;strokeColor=#2D7600;" parent="1" vertex="1">
          <mxGeometry x="370" y="70" width="100" height="60" as="geometry" />
        </mxCell>
        <mxCell id="4" value="" style="rounded=0;whiteSpace=wrap;html=1;sketch=1;hachureGap=4;jiggle=2;curveFitting=1;fontFamily=Architects Daughter;fontSource=https%3A%2F%2Ffonts.googleapis.com%2Fcss%3Ffamily%3DArchitects%2BDaughter;fontSize=20;fillColor=#60a917;fontColor=#ffffff;strokeColor=#2D7600;" parent="1" vertex="1">
          <mxGeometry x="480" y="70" width="100" height="60" as="geometry" />
        </mxCell>
        <mxCell id="6" value="" style="shape=hexagon;perimeter=hexagonPerimeter2;whiteSpace=wrap;html=1;fixedSize=1;sketch=1;hachureGap=4;jiggle=2;curveFitting=1;fontFamily=Architects Daughter;fontSource=https%3A%2F%2Ffonts.googleapis.com%2Fcss%3Ffamily%3DArchitects%2BDaughter;fontSize=20;fillColor=#008a00;fontColor=#ffffff;strokeColor=#005700;" parent="1" vertex="1">
          <mxGeometry x="610" y="60" width="120" height="80" as="geometry" />
        </mxCell>
        <mxCell id="7" value="&lt;b style=&quot;font-size: 12px;&quot;&gt;announcements&lt;/b&gt;" style="text;html=1;strokeColor=none;fillColor=none;align=center;verticalAlign=middle;whiteSpace=wrap;rounded=0;sketch=1;hachureGap=4;jiggle=2;curveFitting=1;fontFamily=Architects Daughter;fontSource=https%3A%2F%2Ffonts.googleapis.com%2Fcss%3Ffamily%3DArchitects%2BDaughter;fontSize=20;fontColor=#000000;" parent="1" vertex="1">
          <mxGeometry x="390" y="80" width="60" height="30" as="geometry" />
        </mxCell>
        <mxCell id="9" value="&lt;span style=&quot;font-size: 12px;&quot;&gt;&lt;b&gt;reminders&lt;/b&gt;&lt;/span&gt;" style="text;html=1;strokeColor=none;fillColor=none;align=center;verticalAlign=middle;whiteSpace=wrap;rounded=0;sketch=1;hachureGap=4;jiggle=2;curveFitting=1;fontFamily=Architects Daughter;fontSource=https%3A%2F%2Ffonts.googleapis.com%2Fcss%3Ffamily%3DArchitects%2BDaughter;fontSize=20;fontColor=#000000;" parent="1" vertex="1">
          <mxGeometry x="500" y="80" width="60" height="30" as="geometry" />
        </mxCell>
        <mxCell id="13" value="&lt;span style=&quot;font-size: 12px;&quot;&gt;&lt;b&gt;Slack Bot + ngrok&lt;/b&gt;&lt;/span&gt;" style="text;html=1;strokeColor=none;fillColor=none;align=center;verticalAlign=middle;whiteSpace=wrap;rounded=0;sketch=1;hachureGap=4;jiggle=2;curveFitting=1;fontFamily=Architects Daughter;fontSource=https%3A%2F%2Ffonts.googleapis.com%2Fcss%3Ffamily%3DArchitects%2BDaughter;fontSize=20;fontColor=#000000;" parent="1" vertex="1">
          <mxGeometry x="640" y="85" width="60" height="30" as="geometry" />
        </mxCell>
        <mxCell id="15" value="" style="rounded=0;whiteSpace=wrap;html=1;sketch=1;hachureGap=4;jiggle=2;curveFitting=1;fontFamily=Architects Daughter;fontSource=https%3A%2F%2Ffonts.googleapis.com%2Fcss%3Ffamily%3DArchitects%2BDaughter;fontSize=12;fillColor=#f8cecc;strokeColor=#b85450;" parent="1" vertex="1">
          <mxGeometry x="120" y="200" width="640" height="370" as="geometry" />
        </mxCell>
        <mxCell id="16" value="&lt;h1&gt;Slack&lt;/h1&gt;" style="text;html=1;strokeColor=none;fillColor=none;spacing=5;spacingTop=-20;whiteSpace=wrap;overflow=hidden;rounded=0;sketch=1;hachureGap=4;jiggle=2;curveFitting=1;fontFamily=Architects Daughter;fontSource=https%3A%2F%2Ffonts.googleapis.com%2Fcss%3Ffamily%3DArchitects%2BDaughter;fontSize=12;fontColor=#000000;fontStyle=0" parent="1" vertex="1">
          <mxGeometry x="345" y="10" width="190" height="40" as="geometry" />
        </mxCell>
        <mxCell id="17" value="&lt;h1&gt;Backend&lt;/h1&gt;" style="text;html=1;strokeColor=none;fillColor=none;spacing=5;spacingTop=-20;whiteSpace=wrap;overflow=hidden;rounded=0;sketch=1;hachureGap=4;jiggle=2;curveFitting=1;fontFamily=Architects Daughter;fontSource=https%3A%2F%2Ffonts.googleapis.com%2Fcss%3Ffamily%3DArchitects%2BDaughter;fontSize=12;fontColor=#000000;fontStyle=0" parent="1" vertex="1">
          <mxGeometry x="120" y="160" width="190" height="40" as="geometry" />
        </mxCell>
        <mxCell id="18" value="&lt;b&gt;Databases&lt;/b&gt;" style="text;html=1;strokeColor=none;fillColor=none;align=center;verticalAlign=middle;whiteSpace=wrap;rounded=0;sketch=1;hachureGap=4;jiggle=2;curveFitting=1;fontFamily=Architects Daughter;fontSource=https%3A%2F%2Ffonts.googleapis.com%2Fcss%3Ffamily%3DArchitects%2BDaughter;fontSize=12;fontColor=#000000;" parent="1" vertex="1">
          <mxGeometry x="290" y="202" width="60" height="30" as="geometry" />
        </mxCell>
        <mxCell id="40" style="edgeStyle=none;sketch=1;hachureGap=4;jiggle=2;curveFitting=1;html=1;exitX=0.75;exitY=1;exitDx=0;exitDy=0;strokeColor=#000000;fontFamily=Architects Daughter;fontSource=https%3A%2F%2Ffonts.googleapis.com%2Fcss%3Ffamily%3DArchitects%2BDaughter;fontSize=12;fontColor=#000000;" parent="1" source="19" target="29" edge="1">
          <mxGeometry relative="1" as="geometry" />
        </mxCell>
        <mxCell id="138" style="edgeStyle=none;sketch=1;hachureGap=4;jiggle=2;curveFitting=1;html=1;exitX=0;exitY=0.5;exitDx=0;exitDy=0;entryX=0.158;entryY=0.167;entryDx=0;entryDy=0;entryPerimeter=0;strokeColor=#000000;fontFamily=Architects Daughter;fontSource=https%3A%2F%2Ffonts.googleapis.com%2Fcss%3Ffamily%3DArchitects%2BDaughter;fontSize=11;fontColor=#000000;" parent="1" source="19" target="71" edge="1">
          <mxGeometry relative="1" as="geometry" />
        </mxCell>
        <mxCell id="19" value="" style="rounded=0;whiteSpace=wrap;html=1;sketch=1;hachureGap=4;jiggle=2;curveFitting=1;fontFamily=Architects Daughter;fontSource=https%3A%2F%2Ffonts.googleapis.com%2Fcss%3Ffamily%3DArchitects%2BDaughter;fontSize=12;fontColor=#ffffff;fillColor=#1ba1e2;strokeColor=#006EAF;" parent="1" vertex="1">
          <mxGeometry x="270" y="232" width="120" height="60" as="geometry" />
        </mxCell>
        <mxCell id="74" style="edgeStyle=none;sketch=1;hachureGap=4;jiggle=2;curveFitting=1;html=1;exitX=0.5;exitY=1;exitDx=0;exitDy=0;strokeColor=#000000;fontFamily=Architects Daughter;fontSource=https%3A%2F%2Ffonts.googleapis.com%2Fcss%3Ffamily%3DArchitects%2BDaughter;fontSize=12;fontColor=#000000;" parent="1" source="20" target="50" edge="1">
          <mxGeometry relative="1" as="geometry">
            <Array as="points">
              <mxPoint x="240" y="460" />
            </Array>
          </mxGeometry>
        </mxCell>
        <mxCell id="20" value="" style="rounded=0;whiteSpace=wrap;html=1;sketch=1;hachureGap=4;jiggle=2;curveFitting=1;fontFamily=Architects Daughter;fontSource=https%3A%2F%2Ffonts.googleapis.com%2Fcss%3Ffamily%3DArchitects%2BDaughter;fontSize=12;fontColor=#ffffff;fillColor=#1ba1e2;strokeColor=#006EAF;" parent="1" vertex="1">
          <mxGeometry x="270" y="330" width="120" height="60" as="geometry" />
        </mxCell>
        <mxCell id="21" value="" style="rounded=0;whiteSpace=wrap;html=1;sketch=1;hachureGap=4;jiggle=2;curveFitting=1;fontFamily=Architects Daughter;fontSource=https%3A%2F%2Ffonts.googleapis.com%2Fcss%3Ffamily%3DArchitects%2BDaughter;fontSize=12;fontColor=#ffffff;fillColor=#1ba1e2;strokeColor=#006EAF;" parent="1" vertex="1">
          <mxGeometry x="270" y="440" width="120" height="60" as="geometry" />
        </mxCell>
        <mxCell id="22" value="&lt;b&gt;slack_messages&lt;/b&gt;" style="text;html=1;strokeColor=none;fillColor=none;align=center;verticalAlign=middle;whiteSpace=wrap;rounded=0;sketch=1;hachureGap=4;jiggle=2;curveFitting=1;fontFamily=Architects Daughter;fontSource=https%3A%2F%2Ffonts.googleapis.com%2Fcss%3Ffamily%3DArchitects%2BDaughter;fontSize=12;fontColor=#000000;" parent="1" vertex="1">
          <mxGeometry x="300" y="247" width="60" height="30" as="geometry" />
        </mxCell>
        <mxCell id="23" value="&lt;b&gt;calendar_events&lt;/b&gt;" style="text;html=1;strokeColor=none;fillColor=none;align=center;verticalAlign=middle;whiteSpace=wrap;rounded=0;sketch=1;hachureGap=4;jiggle=2;curveFitting=1;fontFamily=Architects Daughter;fontSource=https%3A%2F%2Ffonts.googleapis.com%2Fcss%3Ffamily%3DArchitects%2BDaughter;fontSize=12;fontColor=#000000;" parent="1" vertex="1">
          <mxGeometry x="300" y="345" width="60" height="30" as="geometry" />
        </mxCell>
        <mxCell id="24" value="&lt;b&gt;ai_calendar_events&lt;/b&gt;" style="text;html=1;strokeColor=none;fillColor=none;align=center;verticalAlign=middle;whiteSpace=wrap;rounded=0;sketch=1;hachureGap=4;jiggle=2;curveFitting=1;fontFamily=Architects Daughter;fontSource=https%3A%2F%2Ffonts.googleapis.com%2Fcss%3Ffamily%3DArchitects%2BDaughter;fontSize=12;fontColor=#000000;" parent="1" vertex="1">
          <mxGeometry x="300" y="455" width="60" height="30" as="geometry" />
        </mxCell>
        <mxCell id="25" value="- raw messages&lt;br&gt;- timestamp" style="text;html=1;strokeColor=none;fillColor=none;align=center;verticalAlign=middle;whiteSpace=wrap;rounded=0;sketch=1;hachureGap=4;jiggle=2;curveFitting=1;fontFamily=Architects Daughter;fontSource=https%3A%2F%2Ffonts.googleapis.com%2Fcss%3Ffamily%3DArchitects%2BDaughter;fontSize=12;fontColor=#000000;" parent="1" vertex="1">
          <mxGeometry x="130" y="247" width="130" height="30" as="geometry" />
        </mxCell>
        <mxCell id="26" value="- period&lt;br&gt;- type&lt;br&gt;- date&lt;br&gt;- assignment&lt;br&gt;- description" style="text;html=1;strokeColor=none;fillColor=none;align=center;verticalAlign=middle;whiteSpace=wrap;rounded=0;sketch=1;hachureGap=4;jiggle=2;curveFitting=1;fontFamily=Architects Daughter;fontSource=https%3A%2F%2Ffonts.googleapis.com%2Fcss%3Ffamily%3DArchitects%2BDaughter;fontSize=12;fontColor=#000000;" parent="1" vertex="1">
          <mxGeometry x="130" y="340" width="130" height="30" as="geometry" />
        </mxCell>
        <mxCell id="27" value="- type&lt;br&gt;-date&lt;br&gt;- assignment&lt;br&gt;-description" style="text;html=1;strokeColor=none;fillColor=none;align=center;verticalAlign=middle;whiteSpace=wrap;rounded=0;sketch=1;hachureGap=4;jiggle=2;curveFitting=1;fontFamily=Architects Daughter;fontSource=https%3A%2F%2Ffonts.googleapis.com%2Fcss%3Ffamily%3DArchitects%2BDaughter;fontSize=12;fontColor=#000000;" parent="1" vertex="1">
          <mxGeometry x="112.5" y="450" width="165" height="30" as="geometry" />
        </mxCell>
        <mxCell id="28" value="" style="rounded=0;whiteSpace=wrap;html=1;sketch=1;hachureGap=4;jiggle=2;curveFitting=1;fontFamily=Architects Daughter;fontSource=https%3A%2F%2Ffonts.googleapis.com%2Fcss%3Ffamily%3DArchitects%2BDaughter;fontSize=12;fontColor=#ffffff;fillColor=#d80073;strokeColor=#A50040;" parent="1" vertex="1">
          <mxGeometry x="520" y="232" width="120" height="60" as="geometry" />
        </mxCell>
        <mxCell id="29" value="" style="rounded=0;whiteSpace=wrap;html=1;sketch=1;hachureGap=4;jiggle=2;curveFitting=1;fontFamily=Architects Daughter;fontSource=https%3A%2F%2Ffonts.googleapis.com%2Fcss%3Ffamily%3DArchitects%2BDaughter;fontSize=12;fontColor=#ffffff;fillColor=#d80073;strokeColor=#A50040;" parent="1" vertex="1">
          <mxGeometry x="520" y="330" width="120" height="60" as="geometry" />
        </mxCell>
        <mxCell id="30" value="" style="rounded=0;whiteSpace=wrap;html=1;sketch=1;hachureGap=4;jiggle=2;curveFitting=1;fontFamily=Architects Daughter;fontSource=https%3A%2F%2Ffonts.googleapis.com%2Fcss%3Ffamily%3DArchitects%2BDaughter;fontSize=12;fontColor=#ffffff;fillColor=#d80073;strokeColor=#A50040;" parent="1" vertex="1">
          <mxGeometry x="520" y="435" width="120" height="60" as="geometry" />
        </mxCell>
        <mxCell id="31" value="Slack Message Files" style="text;html=1;strokeColor=none;fillColor=none;align=center;verticalAlign=middle;whiteSpace=wrap;rounded=0;sketch=1;hachureGap=4;jiggle=2;curveFitting=1;fontFamily=Architects Daughter;fontSource=https%3A%2F%2Ffonts.googleapis.com%2Fcss%3Ffamily%3DArchitects%2BDaughter;fontSize=12;fontColor=#000000;fontStyle=1" parent="1" vertex="1">
          <mxGeometry x="550" y="247" width="60" height="30" as="geometry" />
        </mxCell>
        <mxCell id="32" value="&lt;b&gt;Calendar Files&lt;/b&gt;" style="text;html=1;strokeColor=none;fillColor=none;align=center;verticalAlign=middle;whiteSpace=wrap;rounded=0;sketch=1;hachureGap=4;jiggle=2;curveFitting=1;fontFamily=Architects Daughter;fontSource=https%3A%2F%2Ffonts.googleapis.com%2Fcss%3Ffamily%3DArchitects%2BDaughter;fontSize=12;fontColor=#000000;" parent="1" vertex="1">
          <mxGeometry x="550" y="345" width="60" height="30" as="geometry" />
        </mxCell>
        <mxCell id="33" value="&lt;b&gt;Deprecrated AI files&lt;/b&gt;" style="text;html=1;strokeColor=none;fillColor=none;align=center;verticalAlign=middle;whiteSpace=wrap;rounded=0;sketch=1;hachureGap=4;jiggle=2;curveFitting=1;fontFamily=Architects Daughter;fontSource=https%3A%2F%2Ffonts.googleapis.com%2Fcss%3Ffamily%3DArchitects%2BDaughter;fontSize=12;fontColor=#000000;" parent="1" vertex="1">
          <mxGeometry x="550" y="450" width="60" height="30" as="geometry" />
        </mxCell>
        <mxCell id="44" value="" style="endArrow=none;dashed=1;html=1;dashPattern=1 3;strokeWidth=2;sketch=1;hachureGap=4;jiggle=2;curveFitting=1;strokeColor=#000000;fontFamily=Architects Daughter;fontSource=https%3A%2F%2Ffonts.googleapis.com%2Fcss%3Ffamily%3DArchitects%2BDaughter;fontSize=12;fontColor=#000000;exitX=0.5;exitY=1;exitDx=0;exitDy=0;entryX=0;entryY=0.25;entryDx=0;entryDy=0;" parent="1" source="19" target="30" edge="1">
          <mxGeometry width="50" height="50" relative="1" as="geometry">
            <mxPoint x="460" y="470" as="sourcePoint" />
            <mxPoint x="510" y="420" as="targetPoint" />
          </mxGeometry>
        </mxCell>
        <mxCell id="46" value="" style="endArrow=none;dashed=1;html=1;dashPattern=1 3;strokeWidth=2;sketch=1;hachureGap=4;jiggle=2;curveFitting=1;strokeColor=#000000;fontFamily=Architects Daughter;fontSource=https%3A%2F%2Ffonts.googleapis.com%2Fcss%3Ffamily%3DArchitects%2BDaughter;fontSize=12;fontColor=#000000;exitX=1;exitY=0.5;exitDx=0;exitDy=0;entryX=0;entryY=0.5;entryDx=0;entryDy=0;" parent="1" source="21" target="30" edge="1">
          <mxGeometry width="50" height="50" relative="1" as="geometry">
            <mxPoint x="460" y="470" as="sourcePoint" />
            <mxPoint x="510" y="420" as="targetPoint" />
          </mxGeometry>
        </mxCell>
        <mxCell id="47" value="" style="rounded=0;whiteSpace=wrap;html=1;sketch=1;hachureGap=4;jiggle=2;curveFitting=1;fontFamily=Architects Daughter;fontSource=https%3A%2F%2Ffonts.googleapis.com%2Fcss%3Ffamily%3DArchitects%2BDaughter;fontSize=12;fillColor=#e1d5e7;strokeColor=#9673a6;" parent="1" vertex="1">
          <mxGeometry x="112.5" y="620" width="647.5" height="320" as="geometry" />
        </mxCell>
        <mxCell id="48" value="&lt;h1&gt;Frontend&lt;/h1&gt;" style="text;html=1;strokeColor=none;fillColor=none;spacing=5;spacingTop=-20;whiteSpace=wrap;overflow=hidden;rounded=0;sketch=1;hachureGap=4;jiggle=2;curveFitting=1;fontFamily=Architects Daughter;fontSource=https%3A%2F%2Ffonts.googleapis.com%2Fcss%3Ffamily%3DArchitects%2BDaughter;fontSize=12;fontColor=#000000;fontStyle=0" parent="1" vertex="1">
          <mxGeometry x="112.5" y="580" width="190" height="40" as="geometry" />
        </mxCell>
        <mxCell id="49" value="" style="shape=table;html=1;whiteSpace=wrap;startSize=0;container=1;collapsible=0;childLayout=tableLayout;sketch=1;hachureGap=4;jiggle=2;curveFitting=1;fontFamily=Architects Daughter;fontSource=https%3A%2F%2Ffonts.googleapis.com%2Fcss%3Ffamily%3DArchitects%2BDaughter;fontSize=12;fontColor=#ffffff;fillColor=#d80073;strokeColor=#A50040;" parent="1" vertex="1">
          <mxGeometry x="270" y="671" width="250" height="240" as="geometry" />
        </mxCell>
        <mxCell id="50" value="" style="shape=tableRow;horizontal=0;startSize=0;swimlaneHead=0;swimlaneBody=0;top=0;left=0;bottom=0;right=0;collapsible=0;dropTarget=0;fillColor=none;points=[[0,0.5],[1,0.5]];portConstraint=eastwest;sketch=1;hachureGap=4;jiggle=2;curveFitting=1;fontFamily=Architects Daughter;fontSource=https%3A%2F%2Ffonts.googleapis.com%2Fcss%3Ffamily%3DArchitects%2BDaughter;fontSize=12;fontColor=#000000;" parent="49" vertex="1">
          <mxGeometry width="250" height="80" as="geometry" />
        </mxCell>
        <mxCell id="51" value="" style="shape=partialRectangle;html=1;whiteSpace=wrap;connectable=0;fillColor=none;top=0;left=0;bottom=0;right=0;overflow=hidden;sketch=1;hachureGap=4;jiggle=2;curveFitting=1;fontFamily=Architects Daughter;fontSource=https%3A%2F%2Ffonts.googleapis.com%2Fcss%3Ffamily%3DArchitects%2BDaughter;fontSize=12;fontColor=#000000;" parent="50" vertex="1">
          <mxGeometry width="84" height="80" as="geometry">
            <mxRectangle width="84" height="80" as="alternateBounds" />
          </mxGeometry>
        </mxCell>
        <mxCell id="52" value="" style="shape=partialRectangle;html=1;whiteSpace=wrap;connectable=0;fillColor=none;top=0;left=0;bottom=0;right=0;overflow=hidden;sketch=1;hachureGap=4;jiggle=2;curveFitting=1;fontFamily=Architects Daughter;fontSource=https%3A%2F%2Ffonts.googleapis.com%2Fcss%3Ffamily%3DArchitects%2BDaughter;fontSize=12;fontColor=#000000;" parent="50" vertex="1">
          <mxGeometry x="84" width="86" height="80" as="geometry">
            <mxRectangle width="86" height="80" as="alternateBounds" />
          </mxGeometry>
        </mxCell>
        <mxCell id="53" value="" style="shape=partialRectangle;html=1;whiteSpace=wrap;connectable=0;fillColor=none;top=0;left=0;bottom=0;right=0;overflow=hidden;sketch=1;hachureGap=4;jiggle=2;curveFitting=1;fontFamily=Architects Daughter;fontSource=https%3A%2F%2Ffonts.googleapis.com%2Fcss%3Ffamily%3DArchitects%2BDaughter;fontSize=12;fontColor=#000000;" parent="50" vertex="1">
          <mxGeometry x="170" width="80" height="80" as="geometry">
            <mxRectangle width="80" height="80" as="alternateBounds" />
          </mxGeometry>
        </mxCell>
        <mxCell id="54" value="" style="shape=tableRow;horizontal=0;startSize=0;swimlaneHead=0;swimlaneBody=0;top=0;left=0;bottom=0;right=0;collapsible=0;dropTarget=0;fillColor=none;points=[[0,0.5],[1,0.5]];portConstraint=eastwest;sketch=1;hachureGap=4;jiggle=2;curveFitting=1;fontFamily=Architects Daughter;fontSource=https%3A%2F%2Ffonts.googleapis.com%2Fcss%3Ffamily%3DArchitects%2BDaughter;fontSize=12;fontColor=#000000;" parent="49" vertex="1">
          <mxGeometry y="80" width="250" height="80" as="geometry" />
        </mxCell>
        <mxCell id="55" value="" style="shape=partialRectangle;html=1;whiteSpace=wrap;connectable=0;fillColor=none;top=0;left=0;bottom=0;right=0;overflow=hidden;sketch=1;hachureGap=4;jiggle=2;curveFitting=1;fontFamily=Architects Daughter;fontSource=https%3A%2F%2Ffonts.googleapis.com%2Fcss%3Ffamily%3DArchitects%2BDaughter;fontSize=12;fontColor=#000000;" parent="54" vertex="1">
          <mxGeometry width="84" height="80" as="geometry">
            <mxRectangle width="84" height="80" as="alternateBounds" />
          </mxGeometry>
        </mxCell>
        <mxCell id="56" value="" style="shape=partialRectangle;html=1;whiteSpace=wrap;connectable=0;fillColor=none;top=0;left=0;bottom=0;right=0;overflow=hidden;sketch=1;hachureGap=4;jiggle=2;curveFitting=1;fontFamily=Architects Daughter;fontSource=https%3A%2F%2Ffonts.googleapis.com%2Fcss%3Ffamily%3DArchitects%2BDaughter;fontSize=12;fontColor=#000000;" parent="54" vertex="1">
          <mxGeometry x="84" width="86" height="80" as="geometry">
            <mxRectangle width="86" height="80" as="alternateBounds" />
          </mxGeometry>
        </mxCell>
        <mxCell id="57" value="" style="shape=partialRectangle;html=1;whiteSpace=wrap;connectable=0;fillColor=none;top=0;left=0;bottom=0;right=0;overflow=hidden;sketch=1;hachureGap=4;jiggle=2;curveFitting=1;fontFamily=Architects Daughter;fontSource=https%3A%2F%2Ffonts.googleapis.com%2Fcss%3Ffamily%3DArchitects%2BDaughter;fontSize=12;fontColor=#000000;" parent="54" vertex="1">
          <mxGeometry x="170" width="80" height="80" as="geometry">
            <mxRectangle width="80" height="80" as="alternateBounds" />
          </mxGeometry>
        </mxCell>
        <mxCell id="58" value="" style="shape=tableRow;horizontal=0;startSize=0;swimlaneHead=0;swimlaneBody=0;top=0;left=0;bottom=0;right=0;collapsible=0;dropTarget=0;fillColor=none;points=[[0,0.5],[1,0.5]];portConstraint=eastwest;sketch=1;hachureGap=4;jiggle=2;curveFitting=1;fontFamily=Architects Daughter;fontSource=https%3A%2F%2Ffonts.googleapis.com%2Fcss%3Ffamily%3DArchitects%2BDaughter;fontSize=12;fontColor=#000000;" parent="49" vertex="1">
          <mxGeometry y="160" width="250" height="80" as="geometry" />
        </mxCell>
        <mxCell id="59" value="" style="shape=partialRectangle;html=1;whiteSpace=wrap;connectable=0;fillColor=none;top=0;left=0;bottom=0;right=0;overflow=hidden;sketch=1;hachureGap=4;jiggle=2;curveFitting=1;fontFamily=Architects Daughter;fontSource=https%3A%2F%2Ffonts.googleapis.com%2Fcss%3Ffamily%3DArchitects%2BDaughter;fontSize=12;fontColor=#000000;" parent="58" vertex="1">
          <mxGeometry width="84" height="80" as="geometry">
            <mxRectangle width="84" height="80" as="alternateBounds" />
          </mxGeometry>
        </mxCell>
        <mxCell id="60" value="" style="shape=partialRectangle;html=1;whiteSpace=wrap;connectable=0;fillColor=none;top=0;left=0;bottom=0;right=0;overflow=hidden;sketch=1;hachureGap=4;jiggle=2;curveFitting=1;fontFamily=Architects Daughter;fontSource=https%3A%2F%2Ffonts.googleapis.com%2Fcss%3Ffamily%3DArchitects%2BDaughter;fontSize=12;fontColor=#000000;" parent="58" vertex="1">
          <mxGeometry x="84" width="86" height="80" as="geometry">
            <mxRectangle width="86" height="80" as="alternateBounds" />
          </mxGeometry>
        </mxCell>
        <mxCell id="61" value="" style="shape=partialRectangle;html=1;whiteSpace=wrap;connectable=0;fillColor=none;top=0;left=0;bottom=0;right=0;overflow=hidden;pointerEvents=1;sketch=1;hachureGap=4;jiggle=2;curveFitting=1;fontFamily=Architects Daughter;fontSource=https%3A%2F%2Ffonts.googleapis.com%2Fcss%3Ffamily%3DArchitects%2BDaughter;fontSize=12;fontColor=#000000;" parent="58" vertex="1">
          <mxGeometry x="170" width="80" height="80" as="geometry">
            <mxRectangle width="80" height="80" as="alternateBounds" />
          </mxGeometry>
        </mxCell>
        <mxCell id="62" value="&lt;b&gt;Calendar&lt;/b&gt;" style="text;html=1;strokeColor=none;fillColor=none;align=center;verticalAlign=middle;whiteSpace=wrap;rounded=0;sketch=1;hachureGap=4;jiggle=2;curveFitting=1;fontFamily=Architects Daughter;fontSource=https%3A%2F%2Ffonts.googleapis.com%2Fcss%3Ffamily%3DArchitects%2BDaughter;fontSize=12;fontColor=#000000;" parent="1" vertex="1">
          <mxGeometry x="270" y="632" width="60" height="30" as="geometry" />
        </mxCell>
        <mxCell id="69" value="" style="rounded=0;whiteSpace=wrap;html=1;sketch=1;hachureGap=4;jiggle=2;curveFitting=1;fontFamily=Architects Daughter;fontSource=https%3A%2F%2Ffonts.googleapis.com%2Fcss%3Ffamily%3DArchitects%2BDaughter;fontSize=12;fontColor=#ffffff;fillColor=#d80073;strokeColor=#A50040;" parent="1" vertex="1">
          <mxGeometry x="536" y="672" width="210" height="238" as="geometry" />
        </mxCell>
        <mxCell id="70" value="&lt;b&gt;Reminders&lt;/b&gt;" style="text;html=1;strokeColor=none;fillColor=none;align=center;verticalAlign=middle;whiteSpace=wrap;rounded=0;sketch=1;hachureGap=4;jiggle=2;curveFitting=1;fontFamily=Architects Daughter;fontSource=https%3A%2F%2Ffonts.googleapis.com%2Fcss%3Ffamily%3DArchitects%2BDaughter;fontSize=12;fontColor=#000000;" parent="1" vertex="1">
          <mxGeometry x="535" y="632" width="60" height="30" as="geometry" />
        </mxCell>
        <mxCell id="71" value="" style="rounded=0;whiteSpace=wrap;html=1;sketch=1;hachureGap=4;jiggle=2;curveFitting=1;fontFamily=Architects Daughter;fontSource=https%3A%2F%2Ffonts.googleapis.com%2Fcss%3Ffamily%3DArchitects%2BDaughter;fontSize=12;fontColor=#ffffff;fillColor=#1ba1e2;strokeColor=#006EAF;" parent="1" vertex="1">
          <mxGeometry x="581" y="750" width="120" height="110" as="geometry" />
        </mxCell>
        <mxCell id="72" value="&lt;b&gt;Local Storage&lt;br&gt;&lt;br&gt;&lt;br&gt;-Checklist&lt;br&gt;&lt;/b&gt;" style="text;html=1;strokeColor=none;fillColor=none;align=center;verticalAlign=middle;whiteSpace=wrap;rounded=0;sketch=1;hachureGap=4;jiggle=2;curveFitting=1;fontFamily=Architects Daughter;fontSource=https%3A%2F%2Ffonts.googleapis.com%2Fcss%3Ffamily%3DArchitects%2BDaughter;fontSize=12;fontColor=#000000;" parent="1" vertex="1">
          <mxGeometry x="611" y="790" width="60" height="30" as="geometry" />
        </mxCell>
        <mxCell id="94" style="edgeStyle=none;sketch=1;hachureGap=4;jiggle=2;curveFitting=1;html=1;exitX=0.25;exitY=0;exitDx=0;exitDy=0;strokeColor=#000000;fontFamily=Architects Daughter;fontSource=https%3A%2F%2Ffonts.googleapis.com%2Fcss%3Ffamily%3DArchitects%2BDaughter;fontSize=15;fontColor=#000000;entryX=0.25;entryY=1;entryDx=0;entryDy=0;" parent="1" source="82" target="29" edge="1">
          <mxGeometry relative="1" as="geometry">
            <mxPoint x="20" y="500" as="targetPoint" />
            <Array as="points">
              <mxPoint x="380" y="540" />
            </Array>
          </mxGeometry>
        </mxCell>
        <mxCell id="82" value="" style="rounded=0;whiteSpace=wrap;html=1;sketch=1;hachureGap=4;jiggle=2;curveFitting=1;fontFamily=Architects Daughter;fontSource=https%3A%2F%2Ffonts.googleapis.com%2Fcss%3Ffamily%3DArchitects%2BDaughter;fontSize=20;fillColor=#60a917;fontColor=#ffffff;strokeColor=#2D7600;" parent="1" vertex="1">
          <mxGeometry x="120" y="640" width="120" height="60" as="geometry" />
        </mxCell>
        <mxCell id="85" value="&lt;b&gt;CRUD&amp;nbsp;&lt;/b&gt;" style="text;html=1;strokeColor=none;fillColor=none;align=center;verticalAlign=middle;whiteSpace=wrap;rounded=0;sketch=1;hachureGap=4;jiggle=2;curveFitting=1;fontFamily=Architects Daughter;fontSource=https%3A%2F%2Ffonts.googleapis.com%2Fcss%3Ffamily%3DArchitects%2BDaughter;fontSize=12;fontColor=#000000;" parent="1" vertex="1">
          <mxGeometry x="150" y="655" width="60" height="30" as="geometry" />
        </mxCell>
        <mxCell id="92" style="edgeStyle=none;sketch=1;hachureGap=4;jiggle=2;curveFitting=1;html=1;exitX=0.5;exitY=0;exitDx=0;exitDy=0;entryX=0.5;entryY=1;entryDx=0;entryDy=0;strokeColor=#000000;fontFamily=Architects Daughter;fontSource=https%3A%2F%2Ffonts.googleapis.com%2Fcss%3Ffamily%3DArchitects%2BDaughter;fontSize=15;fontColor=#000000;" parent="1" source="87" target="82" edge="1">
          <mxGeometry relative="1" as="geometry" />
        </mxCell>
        <mxCell id="87" value="&lt;font style=&quot;font-size: 15px;&quot;&gt;Edit/Delete&lt;/font&gt;" style="swimlane;fontStyle=0;childLayout=stackLayout;horizontal=1;startSize=30;horizontalStack=0;resizeParent=1;resizeParentMax=0;resizeLast=0;collapsible=1;marginBottom=0;whiteSpace=wrap;html=1;sketch=1;hachureGap=4;jiggle=2;curveFitting=1;fontFamily=Architects Daughter;fontSource=https%3A%2F%2Ffonts.googleapis.com%2Fcss%3Ffamily%3DArchitects%2BDaughter;fontSize=20;fillColor=#008a00;fontColor=#000000;strokeColor=#005700;" parent="1" vertex="1">
          <mxGeometry x="120" y="720" width="140" height="120" as="geometry" />
        </mxCell>
        <mxCell id="88" value="&lt;font color=&quot;#000000&quot;&gt;Date&lt;/font&gt;" style="text;strokeColor=#82b366;fillColor=#d5e8d4;align=left;verticalAlign=middle;spacingLeft=4;spacingRight=4;overflow=hidden;points=[[0,0.5],[1,0.5]];portConstraint=eastwest;rotatable=0;whiteSpace=wrap;html=1;fontSize=16;sketch=1;hachureGap=4;jiggle=2;curveFitting=1;fontFamily=Architects Daughter;fontSource=https%3A%2F%2Ffonts.googleapis.com%2Fcss%3Ffamily%3DArchitects%2BDaughter;" parent="87" vertex="1">
          <mxGeometry y="30" width="140" height="30" as="geometry" />
        </mxCell>
        <mxCell id="89" value="&lt;font color=&quot;#000000&quot;&gt;Name&lt;/font&gt;" style="text;strokeColor=#82b366;fillColor=#d5e8d4;align=left;verticalAlign=middle;spacingLeft=4;spacingRight=4;overflow=hidden;points=[[0,0.5],[1,0.5]];portConstraint=eastwest;rotatable=0;whiteSpace=wrap;html=1;fontSize=16;sketch=1;hachureGap=4;jiggle=2;curveFitting=1;fontFamily=Architects Daughter;fontSource=https%3A%2F%2Ffonts.googleapis.com%2Fcss%3Ffamily%3DArchitects%2BDaughter;" parent="87" vertex="1">
          <mxGeometry y="60" width="140" height="30" as="geometry" />
        </mxCell>
        <mxCell id="90" value="&lt;font color=&quot;#000000&quot;&gt;Description&lt;/font&gt;" style="text;strokeColor=#82b366;fillColor=#d5e8d4;align=left;verticalAlign=middle;spacingLeft=4;spacingRight=4;overflow=hidden;points=[[0,0.5],[1,0.5]];portConstraint=eastwest;rotatable=0;whiteSpace=wrap;html=1;fontSize=16;sketch=1;hachureGap=4;jiggle=2;curveFitting=1;fontFamily=Architects Daughter;fontSource=https%3A%2F%2Ffonts.googleapis.com%2Fcss%3Ffamily%3DArchitects%2BDaughter;" parent="87" vertex="1">
          <mxGeometry y="90" width="140" height="30" as="geometry" />
        </mxCell>
        <mxCell id="91" style="edgeStyle=none;sketch=1;hachureGap=4;jiggle=2;curveFitting=1;html=1;exitX=0;exitY=0.5;exitDx=0;exitDy=0;entryX=0.929;entryY=0.167;entryDx=0;entryDy=0;entryPerimeter=0;fontFamily=Architects Daughter;fontSource=https%3A%2F%2Ffonts.googleapis.com%2Fcss%3Ffamily%3DArchitects%2BDaughter;fontSize=15;fontColor=#000000;strokeColor=#000000;" parent="1" source="50" target="87" edge="1">
          <mxGeometry relative="1" as="geometry" />
        </mxCell>
        <mxCell id="93" value="" style="edgeStyle=none;sketch=1;hachureGap=4;jiggle=2;curveFitting=1;html=1;strokeColor=#000000;fontFamily=Architects Daughter;fontSource=https%3A%2F%2Ffonts.googleapis.com%2Fcss%3Ffamily%3DArchitects%2BDaughter;fontSize=15;fontColor=#000000;" parent="1" source="50" target="88" edge="1">
          <mxGeometry relative="1" as="geometry" />
        </mxCell>
        <mxCell id="97" value="Actor" style="shape=umlActor;verticalLabelPosition=bottom;verticalAlign=top;html=1;outlineConnect=0;sketch=1;hachureGap=4;jiggle=2;curveFitting=1;fontFamily=Architects Daughter;fontSource=https%3A%2F%2Ffonts.googleapis.com%2Fcss%3Ffamily%3DArchitects%2BDaughter;fontSize=15;fontColor=#ffffff;strokeColor=#3700CC;fillColor=#6a00ff;" parent="1" vertex="1">
          <mxGeometry x="581" y="1000" width="30" height="60" as="geometry" />
        </mxCell>
        <mxCell id="98" value="Actor" style="shape=umlActor;verticalLabelPosition=bottom;verticalAlign=top;html=1;outlineConnect=0;sketch=1;hachureGap=4;jiggle=2;curveFitting=1;fontFamily=Architects Daughter;fontSource=https%3A%2F%2Ffonts.googleapis.com%2Fcss%3Ffamily%3DArchitects%2BDaughter;fontSize=15;fontColor=#ffffff;strokeColor=#3700CC;fillColor=#6a00ff;" parent="1" vertex="1">
          <mxGeometry x="640" y="1000" width="30" height="60" as="geometry" />
        </mxCell>
        <mxCell id="99" value="Actor" style="shape=umlActor;verticalLabelPosition=bottom;verticalAlign=top;html=1;outlineConnect=0;sketch=1;hachureGap=4;jiggle=2;curveFitting=1;fontFamily=Architects Daughter;fontSource=https%3A%2F%2Ffonts.googleapis.com%2Fcss%3Ffamily%3DArchitects%2BDaughter;fontSize=15;fontColor=#ffffff;strokeColor=#3700CC;fillColor=#6a00ff;" parent="1" vertex="1">
          <mxGeometry x="699" y="1000" width="30" height="60" as="geometry" />
        </mxCell>
        <mxCell id="100" value="Actor" style="shape=umlActor;verticalLabelPosition=bottom;verticalAlign=top;html=1;outlineConnect=0;sketch=1;hachureGap=4;jiggle=2;curveFitting=1;fontFamily=Architects Daughter;fontSource=https%3A%2F%2Ffonts.googleapis.com%2Fcss%3Ffamily%3DArchitects%2BDaughter;fontSize=15;fontColor=#ffffff;strokeColor=#3700CC;fillColor=#6a00ff;" parent="1" vertex="1">
          <mxGeometry x="334" y="997" width="30" height="60" as="geometry" />
        </mxCell>
        <mxCell id="101" value="Matthew" style="text;html=1;strokeColor=none;fillColor=none;align=center;verticalAlign=middle;whiteSpace=wrap;rounded=0;sketch=1;hachureGap=4;jiggle=2;curveFitting=1;fontFamily=Architects Daughter;fontSource=https%3A%2F%2Ffonts.googleapis.com%2Fcss%3Ffamily%3DArchitects%2BDaughter;fontSize=15;fontColor=#000000;" parent="1" vertex="1">
          <mxGeometry x="319" y="1057" width="60" height="30" as="geometry" />
        </mxCell>
        <mxCell id="102" value="Anusha" style="text;html=1;strokeColor=none;fillColor=none;align=center;verticalAlign=middle;whiteSpace=wrap;rounded=0;sketch=1;hachureGap=4;jiggle=2;curveFitting=1;fontFamily=Architects Daughter;fontSource=https%3A%2F%2Ffonts.googleapis.com%2Fcss%3Ffamily%3DArchitects%2BDaughter;fontSize=15;fontColor=#000000;" parent="1" vertex="1">
          <mxGeometry x="566" y="1060" width="60" height="30" as="geometry" />
        </mxCell>
        <mxCell id="103" value="Vibha" style="text;html=1;strokeColor=none;fillColor=none;align=center;verticalAlign=middle;whiteSpace=wrap;rounded=0;sketch=1;hachureGap=4;jiggle=2;curveFitting=1;fontFamily=Architects Daughter;fontSource=https%3A%2F%2Ffonts.googleapis.com%2Fcss%3Ffamily%3DArchitects%2BDaughter;fontSize=15;fontColor=#000000;" parent="1" vertex="1">
          <mxGeometry x="626" y="1060" width="60" height="30" as="geometry" />
        </mxCell>
        <mxCell id="104" value="Avanthika" style="text;html=1;strokeColor=none;fillColor=none;align=center;verticalAlign=middle;whiteSpace=wrap;rounded=0;sketch=1;hachureGap=4;jiggle=2;curveFitting=1;fontFamily=Architects Daughter;fontSource=https%3A%2F%2Ffonts.googleapis.com%2Fcss%3Ffamily%3DArchitects%2BDaughter;fontSize=15;fontColor=#000000;" parent="1" vertex="1">
          <mxGeometry x="690" y="1060" width="60" height="30" as="geometry" />
        </mxCell>
        <mxCell id="106" value="&lt;h1&gt;&lt;span style=&quot;background-color: initial;&quot;&gt;Slack Transposer Overview&lt;/span&gt;&lt;span style=&quot;background-color: initial; font-size: 15px;&quot;&gt;&amp;nbsp;&lt;/span&gt;&lt;/h1&gt;" style="text;html=1;strokeColor=none;fillColor=none;spacing=5;spacingTop=-20;whiteSpace=wrap;overflow=hidden;rounded=0;sketch=1;hachureGap=4;jiggle=2;curveFitting=1;fontFamily=Architects Daughter;fontSource=https%3A%2F%2Ffonts.googleapis.com%2Fcss%3Ffamily%3DArchitects%2BDaughter;fontSize=15;fontColor=#000000;fontStyle=1" parent="1" vertex="1">
          <mxGeometry x="80" width="190" height="120" as="geometry" />
        </mxCell>
        <mxCell id="107" value="&lt;h1&gt;Our Team&lt;/h1&gt;" style="text;html=1;strokeColor=none;fillColor=none;spacing=5;spacingTop=-20;whiteSpace=wrap;overflow=hidden;rounded=0;sketch=1;hachureGap=4;jiggle=2;curveFitting=1;fontFamily=Architects Daughter;fontSource=https%3A%2F%2Ffonts.googleapis.com%2Fcss%3Ffamily%3DArchitects%2BDaughter;fontSize=12;fontColor=#000000;fontStyle=0" parent="1" vertex="1">
          <mxGeometry x="319" y="940" width="190" height="40" as="geometry" />
        </mxCell>
        <mxCell id="114" style="edgeStyle=none;sketch=1;hachureGap=4;jiggle=2;curveFitting=1;html=1;exitX=0.5;exitY=0;exitDx=0;exitDy=0;entryX=0;entryY=0.75;entryDx=0;entryDy=0;strokeColor=#000000;fontFamily=Architects Daughter;fontSource=https%3A%2F%2Ffonts.googleapis.com%2Fcss%3Ffamily%3DArchitects%2BDaughter;fontSize=15;fontColor=#000000;" parent="1" source="111" target="3" edge="1">
          <mxGeometry relative="1" as="geometry">
            <Array as="points">
              <mxPoint x="120" y="130" />
            </Array>
          </mxGeometry>
        </mxCell>
        <mxCell id="111" value="" style="shape=ext;double=1;rounded=1;whiteSpace=wrap;html=1;sketch=1;hachureGap=4;jiggle=2;curveFitting=1;strokeColor=#2D7600;fontFamily=Architects Daughter;fontSource=https%3A%2F%2Ffonts.googleapis.com%2Fcss%3Ffamily%3DArchitects%2BDaughter;fontSize=15;fontColor=#ffffff;fillColor=#60a917;" parent="1" vertex="1">
          <mxGeometry x="10" y="375" width="100" height="105" as="geometry" />
        </mxCell>
        <mxCell id="112" value="&lt;span style=&quot;font-size: 12px;&quot;&gt;&lt;b&gt;edited! or deleted! message&lt;/b&gt;&lt;/span&gt;" style="text;html=1;strokeColor=none;fillColor=none;align=center;verticalAlign=middle;whiteSpace=wrap;rounded=0;sketch=1;hachureGap=4;jiggle=2;curveFitting=1;fontFamily=Architects Daughter;fontSource=https%3A%2F%2Ffonts.googleapis.com%2Fcss%3Ffamily%3DArchitects%2BDaughter;fontSize=20;fontColor=#000000;" parent="1" vertex="1">
          <mxGeometry x="30" y="405" width="60" height="30" as="geometry" />
        </mxCell>
        <mxCell id="113" style="edgeStyle=none;sketch=1;hachureGap=4;jiggle=2;curveFitting=1;html=1;exitX=0;exitY=0.5;exitDx=0;exitDy=0;entryX=0.5;entryY=1;entryDx=0;entryDy=0;strokeColor=#000000;fontFamily=Architects Daughter;fontSource=https%3A%2F%2Ffonts.googleapis.com%2Fcss%3Ffamily%3DArchitects%2BDaughter;fontSize=15;fontColor=#000000;" parent="1" source="88" target="111" edge="1">
          <mxGeometry relative="1" as="geometry">
            <Array as="points">
              <mxPoint x="70" y="630" />
            </Array>
          </mxGeometry>
        </mxCell>
        <mxCell id="128" style="edgeStyle=none;sketch=1;hachureGap=4;jiggle=2;curveFitting=1;html=1;exitX=0;exitY=0.5;exitDx=0;exitDy=0;entryX=1;entryY=0.3333333333333333;entryDx=0;entryDy=0;entryPerimeter=0;fontFamily=Architects Daughter;fontSource=https%3A%2F%2Ffonts.googleapis.com%2Fcss%3Ffamily%3DArchitects%2BDaughter;fontSize=16;strokeColor=#000000;" parent="1" source="115" target="100" edge="1">
          <mxGeometry relative="1" as="geometry" />
        </mxCell>
        <mxCell id="115" value="Product Lead" style="text;html=1;strokeColor=none;fillColor=none;align=center;verticalAlign=middle;whiteSpace=wrap;rounded=0;sketch=1;hachureGap=4;jiggle=2;curveFitting=1;fontFamily=Architects Daughter;fontSource=https%3A%2F%2Ffonts.googleapis.com%2Fcss%3Ffamily%3DArchitects%2BDaughter;fontSize=15;fontColor=#000000;" parent="1" vertex="1">
          <mxGeometry x="390" y="1012" width="60" height="30" as="geometry" />
        </mxCell>
        <mxCell id="127" style="edgeStyle=none;sketch=1;hachureGap=4;jiggle=2;curveFitting=1;html=1;exitX=1;exitY=0.5;exitDx=0;exitDy=0;entryX=0.5;entryY=0.5;entryDx=0;entryDy=0;entryPerimeter=0;fontFamily=Architects Daughter;fontSource=https%3A%2F%2Ffonts.googleapis.com%2Fcss%3Ffamily%3DArchitects%2BDaughter;fontSize=16;" parent="1" source="118" target="97" edge="1">
          <mxGeometry relative="1" as="geometry" />
        </mxCell>
        <mxCell id="129" style="edgeStyle=none;sketch=1;hachureGap=4;jiggle=2;curveFitting=1;html=1;exitX=1;exitY=0.5;exitDx=0;exitDy=0;strokeColor=#000000;fontFamily=Architects Daughter;fontSource=https%3A%2F%2Ffonts.googleapis.com%2Fcss%3Ffamily%3DArchitects%2BDaughter;fontSize=16;" parent="1" source="118" edge="1">
          <mxGeometry relative="1" as="geometry">
            <mxPoint x="590" y="1029.5555555555557" as="targetPoint" />
          </mxGeometry>
        </mxCell>
        <mxCell id="118" value="Period 1 Scrum Master" style="text;html=1;strokeColor=none;fillColor=none;align=center;verticalAlign=middle;whiteSpace=wrap;rounded=0;sketch=1;hachureGap=4;jiggle=2;curveFitting=1;fontFamily=Architects Daughter;fontSource=https%3A%2F%2Ffonts.googleapis.com%2Fcss%3Ffamily%3DArchitects%2BDaughter;fontSize=15;fontColor=#000000;" parent="1" vertex="1">
          <mxGeometry x="500" y="1015" width="60" height="30" as="geometry" />
        </mxCell>
        <mxCell id="122" value="&lt;h1&gt;Documentation&lt;/h1&gt;" style="text;html=1;strokeColor=none;fillColor=none;spacing=5;spacingTop=-20;whiteSpace=wrap;overflow=hidden;rounded=0;sketch=1;hachureGap=4;jiggle=2;curveFitting=1;fontFamily=Architects Daughter;fontSource=https%3A%2F%2Ffonts.googleapis.com%2Fcss%3Ffamily%3DArchitects%2BDaughter;fontSize=12;fontColor=#000000;fontStyle=0" parent="1" vertex="1">
          <mxGeometry x="30" y="950" width="190" height="40" as="geometry" />
        </mxCell>
        <mxCell id="123" value="" style="rounded=0;whiteSpace=wrap;html=1;sketch=1;hachureGap=4;jiggle=2;curveFitting=1;strokeColor=#2D7600;fontFamily=Architects Daughter;fontSource=https%3A%2F%2Ffonts.googleapis.com%2Fcss%3Ffamily%3DArchitects%2BDaughter;fontSize=15;fontColor=#ffffff;fillColor=#60a917;" parent="1" vertex="1">
          <mxGeometry x="20" y="1000" width="100" height="60" as="geometry" />
        </mxCell>
        <mxCell id="125" value="" style="rounded=0;whiteSpace=wrap;html=1;sketch=1;hachureGap=4;jiggle=2;curveFitting=1;strokeColor=#2D7600;fontFamily=Architects Daughter;fontSource=https%3A%2F%2Ffonts.googleapis.com%2Fcss%3Ffamily%3DArchitects%2BDaughter;fontSize=15;fontColor=#ffffff;fillColor=#60a917;" parent="1" vertex="1">
          <mxGeometry x="150" y="1000" width="100" height="60" as="geometry" />
        </mxCell>
        <mxCell id="126" value="&lt;font style=&quot;font-size: 11px;&quot;&gt;SlackTransposer Frontend&lt;/font&gt;" style="text;html=1;strokeColor=none;fillColor=none;align=center;verticalAlign=middle;whiteSpace=wrap;rounded=0;sketch=1;hachureGap=4;jiggle=2;curveFitting=1;fontFamily=Architects Daughter;fontSource=https%3A%2F%2Ffonts.googleapis.com%2Fcss%3Ffamily%3DArchitects%2BDaughter;fontSize=15;fontColor=#000000;" parent="1" vertex="1">
          <mxGeometry x="40" y="1015" width="60" height="30" as="geometry" />
        </mxCell>
        <mxCell id="132" value="&lt;font style=&quot;font-size: 11px;&quot;&gt;SlackTransposer Backend&lt;/font&gt;" style="text;html=1;strokeColor=none;fillColor=none;align=center;verticalAlign=middle;whiteSpace=wrap;rounded=0;sketch=1;hachureGap=4;jiggle=2;curveFitting=1;fontFamily=Architects Daughter;fontSource=https%3A%2F%2Ffonts.googleapis.com%2Fcss%3Ffamily%3DArchitects%2BDaughter;fontSize=15;fontColor=#000000;" parent="1" vertex="1">
          <mxGeometry x="170" y="1015" width="60" height="30" as="geometry" />
        </mxCell>
        <mxCell id="133" value="" style="rounded=1;whiteSpace=wrap;html=1;sketch=1;hachureGap=4;jiggle=2;curveFitting=1;fontFamily=Architects Daughter;fontSource=https%3A%2F%2Ffonts.googleapis.com%2Fcss%3Ffamily%3DArchitects%2BDaughter;fontSize=11;fontColor=#ffffff;fillColor=#1ba1e2;strokeColor=#006EAF;" parent="1" vertex="1">
          <mxGeometry x="277.5" y="685" width="70" height="20" as="geometry" />
        </mxCell>
        <mxCell id="134" value="" style="rounded=1;whiteSpace=wrap;html=1;sketch=1;hachureGap=4;jiggle=2;curveFitting=1;fontFamily=Architects Daughter;fontSource=https%3A%2F%2Ffonts.googleapis.com%2Fcss%3Ffamily%3DArchitects%2BDaughter;fontSize=11;fontColor=#ffffff;fillColor=#1ba1e2;strokeColor=#006EAF;" parent="1" vertex="1">
          <mxGeometry x="280" y="720" width="70" height="20" as="geometry" />
        </mxCell>
        <mxCell id="135" value="" style="rounded=1;whiteSpace=wrap;html=1;sketch=1;hachureGap=4;jiggle=2;curveFitting=1;fontFamily=Architects Daughter;fontSource=https%3A%2F%2Ffonts.googleapis.com%2Fcss%3Ffamily%3DArchitects%2BDaughter;fontSize=11;fontColor=#ffffff;fillColor=#1ba1e2;strokeColor=#006EAF;" parent="1" vertex="1">
          <mxGeometry x="364" y="685" width="70" height="20" as="geometry" />
        </mxCell>
        <mxCell id="136" value="" style="rounded=1;whiteSpace=wrap;html=1;sketch=1;hachureGap=4;jiggle=2;curveFitting=1;fontFamily=Architects Daughter;fontSource=https%3A%2F%2Ffonts.googleapis.com%2Fcss%3Ffamily%3DArchitects%2BDaughter;fontSize=11;fontColor=#ffffff;fillColor=#1ba1e2;strokeColor=#006EAF;" parent="1" vertex="1">
          <mxGeometry x="446" y="685" width="70" height="20" as="geometry" />
        </mxCell>
        <mxCell id="139" value="" style="shape=flexArrow;endArrow=classic;startArrow=classic;html=1;sketch=1;hachureGap=4;jiggle=2;curveFitting=1;strokeColor=#000000;fontFamily=Architects Daughter;fontSource=https%3A%2F%2Ffonts.googleapis.com%2Fcss%3Ffamily%3DArchitects%2BDaughter;fontSize=11;fontColor=#000000;entryX=0.5;entryY=1;entryDx=0;entryDy=0;" parent="1" source="21" target="20" edge="1">
          <mxGeometry width="100" height="100" relative="1" as="geometry">
            <mxPoint x="277.5" y="505" as="sourcePoint" />
            <mxPoint x="377.5" y="405" as="targetPoint" />
          </mxGeometry>
        </mxCell>
        <mxCell id="141" value="" style="shape=flexArrow;endArrow=classic;startArrow=classic;html=1;sketch=1;hachureGap=4;jiggle=2;curveFitting=1;strokeColor=#000000;fontFamily=Architects Daughter;fontSource=https%3A%2F%2Ffonts.googleapis.com%2Fcss%3Ffamily%3DArchitects%2BDaughter;fontSize=11;fontColor=#000000;entryX=0;entryY=0.5;entryDx=0;entryDy=0;exitX=1;exitY=0.5;exitDx=0;exitDy=0;" edge="1" parent="1" source="20" target="29">
          <mxGeometry width="100" height="100" relative="1" as="geometry">
            <mxPoint x="350" y="460" as="sourcePoint" />
            <mxPoint x="350" y="410" as="targetPoint" />
          </mxGeometry>
        </mxCell>
        <mxCell id="142" value="" style="shape=flexArrow;endArrow=classic;startArrow=classic;html=1;sketch=1;hachureGap=4;jiggle=2;curveFitting=1;strokeColor=#000000;fontFamily=Architects Daughter;fontSource=https%3A%2F%2Ffonts.googleapis.com%2Fcss%3Ffamily%3DArchitects%2BDaughter;fontSize=11;fontColor=#000000;entryX=0;entryY=0.5;entryDx=0;entryDy=0;exitX=1;exitY=0.5;exitDx=0;exitDy=0;" edge="1" parent="1">
          <mxGeometry width="100" height="100" relative="1" as="geometry">
            <mxPoint x="390" y="261.55" as="sourcePoint" />
            <mxPoint x="520" y="261.55" as="targetPoint" />
            <Array as="points">
              <mxPoint x="440" y="261.55" />
            </Array>
          </mxGeometry>
        </mxCell>
        <mxCell id="144" value="" style="shape=flexArrow;endArrow=classic;startArrow=classic;html=1;sketch=1;hachureGap=4;jiggle=2;curveFitting=1;strokeColor=#000000;fontFamily=Architects Daughter;fontSource=https%3A%2F%2Ffonts.googleapis.com%2Fcss%3Ffamily%3DArchitects%2BDaughter;fontSize=11;fontColor=#000000;entryX=0.5;entryY=0;entryDx=0;entryDy=0;exitX=0.559;exitY=0.979;exitDx=0;exitDy=0;exitPerimeter=0;" edge="1" parent="1" source="2" target="28">
          <mxGeometry width="100" height="100" relative="1" as="geometry">
            <mxPoint x="350" y="460" as="sourcePoint" />
            <mxPoint x="350" y="410" as="targetPoint" />
          </mxGeometry>
        </mxCell>
      </root>
    </mxGraphModel>
  </diagram>
</mxfile>
